<svg width="354" height="155" viewBox="0 0 354 155" fill="none" xmlns="http://www.w3.org/2000/svg">
<path d="M140.208 122.708H28.7917" stroke="#33363F" stroke-width="2" stroke-linecap="round"/>
<path d="M74.5416 51.6667H46.7083C45.6037 51.6667 44.7083 52.5621 44.7083 53.6667V101.333C44.7083 102.438 45.6037 103.333 46.7083 103.333H74.5416C75.6462 103.333 76.5416 102.438 76.5416 101.333V53.6667C76.5416 52.5621 75.6462 51.6667 74.5416 51.6667Z" fill="#3185FC"/>
<path d="M122.292 25.8333H94.4583C93.3537 25.8333 92.4583 26.7288 92.4583 27.8333V101.333C92.4583 102.438 93.3537 103.333 94.4583 103.333H122.292C123.396 103.333 124.292 102.438 124.292 101.333V27.8333C124.292 26.7288 123.396 25.8333 122.292 25.8333Z" fill="#623CEA"/>
<path d="M176.492 27.875V62H168.852V27.875H176.492ZM189.922 42.2656V48.1719H174.359V42.2656H189.922ZM191.422 27.875V33.8047H174.359V27.875H191.422ZM202.484 36.6406V62H195.148V36.6406H202.484ZM194.703 30.0781C194.703 29.0156 195.078 28.1484 195.828 27.4766C196.578 26.7891 197.562 26.4453 198.781 26.4453C200 26.4453 200.984 26.7891 201.734 27.4766C202.5 28.1484 202.883 29.0156 202.883 30.0781C202.883 31.125 202.5 31.9922 201.734 32.6797C200.984 33.3516 200 33.6875 198.781 33.6875C197.562 33.6875 196.578 33.3516 195.828 32.6797C195.078 31.9922 194.703 31.125 194.703 30.0781ZM214.93 42.0547V62H207.594V36.6406H214.484L214.93 42.0547ZM213.969 48.4297L212.141 48.4766C212.141 46.5703 212.375 44.8594 212.844 43.3438C213.312 41.8281 213.977 40.5391 214.836 39.4766C215.711 38.3984 216.75 37.5781 217.953 37.0156C219.172 36.4531 220.516 36.1719 221.984 36.1719C223.172 36.1719 224.258 36.3438 225.242 36.6875C226.227 37.0312 227.07 37.5859 227.773 38.3516C228.492 39.1016 229.039 40.1016 229.414 41.3516C229.789 42.5859 229.977 44.1094 229.977 45.9219V62H222.617V45.8984C222.617 44.8359 222.469 44.0156 222.172 43.4375C221.875 42.8594 221.438 42.4531 220.859 42.2188C220.297 41.9844 219.609 41.8672 218.797 41.8672C217.938 41.8672 217.203 42.0391 216.594 42.3828C215.984 42.7109 215.484 43.1719 215.094 43.7656C214.703 44.3594 214.414 45.0547 214.227 45.8516C214.055 46.6484 213.969 47.5078 213.969 48.4297ZM248.188 55.9531V45.0781C248.188 44.3125 248.07 43.6562 247.836 43.1094C247.602 42.5625 247.234 42.1328 246.734 41.8203C246.234 41.5078 245.586 41.3516 244.789 41.3516C244.117 41.3516 243.531 41.4688 243.031 41.7031C242.547 41.9375 242.172 42.2734 241.906 42.7109C241.656 43.1484 241.531 43.6875 241.531 44.3281H234.219C234.219 43.1875 234.477 42.125 234.992 41.1406C235.508 40.1562 236.242 39.2891 237.195 38.5391C238.164 37.7891 239.32 37.2109 240.664 36.8047C242.008 36.3828 243.516 36.1719 245.188 36.1719C247.172 36.1719 248.938 36.5078 250.484 37.1797C252.047 37.8359 253.281 38.8281 254.188 40.1562C255.094 41.4688 255.547 43.125 255.547 45.125V55.7422C255.547 57.2734 255.633 58.4766 255.805 59.3516C255.992 60.2109 256.258 60.9609 256.602 61.6016V62H249.219C248.875 61.2656 248.617 60.3594 248.445 59.2812C248.273 58.1875 248.188 57.0781 248.188 55.9531ZM249.102 46.5312L249.148 50.5625H245.516C244.703 50.5625 244 50.6641 243.406 50.8672C242.828 51.0703 242.359 51.3516 242 51.7109C241.641 52.0547 241.375 52.4609 241.203 52.9297C241.047 53.3828 240.969 53.8828 240.969 54.4297C240.969 54.9453 241.094 55.4141 241.344 55.8359C241.594 56.2422 241.938 56.5625 242.375 56.7969C242.812 57.0312 243.32 57.1484 243.898 57.1484C244.852 57.1484 245.664 56.9609 246.336 56.5859C247.023 56.2109 247.555 55.7578 247.93 55.2266C248.305 54.6797 248.492 54.1719 248.492 53.7031L250.25 56.75C249.969 57.375 249.625 58.0234 249.219 58.6953C248.812 59.3516 248.297 59.9688 247.672 60.5469C247.047 61.1094 246.289 61.5703 245.398 61.9297C244.523 62.2891 243.469 62.4688 242.234 62.4688C240.641 62.4688 239.195 62.1484 237.898 61.5078C236.602 60.8516 235.562 59.9531 234.781 58.8125C234.016 57.6719 233.633 56.3594 233.633 54.875C233.633 53.5469 233.875 52.3672 234.359 51.3359C234.844 50.3047 235.57 49.4297 236.539 48.7109C237.523 47.9922 238.758 47.4531 240.242 47.0938C241.727 46.7188 243.461 46.5312 245.445 46.5312H249.102ZM267.523 42.0547V62H260.188V36.6406H267.078L267.523 42.0547ZM266.562 48.4297L264.734 48.4766C264.734 46.5703 264.969 44.8594 265.438 43.3438C265.906 41.8281 266.57 40.5391 267.43 39.4766C268.305 38.3984 269.344 37.5781 270.547 37.0156C271.766 36.4531 273.109 36.1719 274.578 36.1719C275.766 36.1719 276.852 36.3438 277.836 36.6875C278.82 37.0312 279.664 37.5859 280.367 38.3516C281.086 39.1016 281.633 40.1016 282.008 41.3516C282.383 42.5859 282.57 44.1094 282.57 45.9219V62H275.211V45.8984C275.211 44.8359 275.062 44.0156 274.766 43.4375C274.469 42.8594 274.031 42.4531 273.453 42.2188C272.891 41.9844 272.203 41.8672 271.391 41.8672C270.531 41.8672 269.797 42.0391 269.188 42.3828C268.578 42.7109 268.078 43.1719 267.688 43.7656C267.297 44.3594 267.008 45.0547 266.82 45.8516C266.648 46.6484 266.562 47.5078 266.562 48.4297ZM297.945 56.7734C298.727 56.7734 299.406 56.625 299.984 56.3281C300.562 56.0312 301.008 55.6172 301.32 55.0859C301.648 54.5391 301.812 53.8828 301.812 53.1172H308.703C308.703 54.9609 308.227 56.5859 307.273 57.9922C306.336 59.3984 305.07 60.5 303.477 61.2969C301.883 62.0781 300.086 62.4688 298.086 62.4688C296.117 62.4688 294.398 62.1484 292.93 61.5078C291.461 60.8516 290.234 59.9375 289.25 58.7656C288.266 57.5938 287.523 56.2344 287.023 54.6875C286.539 53.125 286.297 51.4375 286.297 49.625V49.0156C286.297 47.2188 286.539 45.5391 287.023 43.9766C287.523 42.4141 288.266 41.0469 289.25 39.875C290.234 38.7031 291.453 37.7969 292.906 37.1562C294.375 36.5 296.094 36.1719 298.062 36.1719C300.141 36.1719 301.977 36.5703 303.57 37.3672C305.18 38.1641 306.438 39.3125 307.344 40.8125C308.25 42.2969 308.703 44.0859 308.703 46.1797H301.812C301.812 45.3672 301.664 44.6406 301.367 44C301.086 43.3438 300.648 42.8281 300.055 42.4531C299.477 42.0625 298.758 41.8672 297.898 41.8672C297.008 41.8672 296.273 42.0625 295.695 42.4531C295.133 42.8281 294.703 43.3516 294.406 44.0234C294.109 44.6953 293.906 45.4609 293.797 46.3203C293.688 47.1641 293.633 48.0625 293.633 49.0156V49.625C293.633 50.5938 293.688 51.5156 293.797 52.3906C293.906 53.25 294.109 54.0078 294.406 54.6641C294.719 55.3203 295.156 55.8359 295.719 56.2109C296.281 56.5859 297.023 56.7734 297.945 56.7734ZM324.289 62.4688C322.273 62.4688 320.469 62.1484 318.875 61.5078C317.281 60.8672 315.93 59.9844 314.82 58.8594C313.727 57.7188 312.891 56.4062 312.312 54.9219C311.734 53.4375 311.445 51.8516 311.445 50.1641V49.2734C311.445 47.3828 311.711 45.6406 312.242 44.0469C312.773 42.4531 313.547 41.0703 314.562 39.8984C315.594 38.7109 316.859 37.7969 318.359 37.1562C319.859 36.5 321.57 36.1719 323.492 36.1719C325.289 36.1719 326.891 36.4688 328.297 37.0625C329.703 37.6406 330.891 38.4766 331.859 39.5703C332.828 40.6484 333.562 41.9531 334.062 43.4844C334.578 45 334.836 46.7031 334.836 48.5938V51.5938H314.398V46.8828H327.664V46.3203C327.664 45.4297 327.5 44.6484 327.172 43.9766C326.859 43.3047 326.391 42.7891 325.766 42.4297C325.156 42.0547 324.383 41.8672 323.445 41.8672C322.555 41.8672 321.812 42.0547 321.219 42.4297C320.625 42.8047 320.148 43.3359 319.789 44.0234C319.445 44.6953 319.195 45.4844 319.039 46.3906C318.883 47.2812 318.805 48.2422 318.805 49.2734V50.1641C318.805 51.1484 318.938 52.0469 319.203 52.8594C319.469 53.6719 319.859 54.3672 320.375 54.9453C320.891 55.5234 321.516 55.9766 322.25 56.3047C322.984 56.6328 323.82 56.7969 324.758 56.7969C325.914 56.7969 327.016 56.5781 328.062 56.1406C329.109 55.6875 330.016 54.9844 330.781 54.0312L334.203 57.9453C333.688 58.6953 332.961 59.4219 332.023 60.125C331.102 60.8125 329.992 61.375 328.695 61.8125C327.398 62.25 325.93 62.4688 324.289 62.4688ZM186.875 83.875V118H179.258V83.875H186.875ZM197.258 83.875V89.8047H169.086V83.875H197.258ZM206.398 98.5469V118H199.086V92.6406H205.953L206.398 98.5469ZM213.969 92.4531L213.852 99.2734C213.539 99.2266 213.133 99.1875 212.633 99.1562C212.133 99.1094 211.703 99.0859 211.344 99.0859C210.406 99.0859 209.594 99.2031 208.906 99.4375C208.234 99.6562 207.672 99.9844 207.219 100.422C206.781 100.859 206.453 101.406 206.234 102.062C206.016 102.703 205.906 103.445 205.906 104.289L204.523 103.609C204.523 101.938 204.688 100.406 205.016 99.0156C205.344 97.625 205.82 96.4219 206.445 95.4062C207.07 94.375 207.836 93.5781 208.742 93.0156C209.648 92.4531 210.68 92.1719 211.836 92.1719C212.211 92.1719 212.594 92.1953 212.984 92.2422C213.375 92.2891 213.703 92.3594 213.969 92.4531ZM229.648 111.953V101.078C229.648 100.312 229.531 99.6562 229.297 99.1094C229.062 98.5625 228.695 98.1328 228.195 97.8203C227.695 97.5078 227.047 97.3516 226.25 97.3516C225.578 97.3516 224.992 97.4688 224.492 97.7031C224.008 97.9375 223.633 98.2734 223.367 98.7109C223.117 99.1484 222.992 99.6875 222.992 100.328H215.68C215.68 99.1875 215.938 98.125 216.453 97.1406C216.969 96.1562 217.703 95.2891 218.656 94.5391C219.625 93.7891 220.781 93.2109 222.125 92.8047C223.469 92.3828 224.977 92.1719 226.648 92.1719C228.633 92.1719 230.398 92.5078 231.945 93.1797C233.508 93.8359 234.742 94.8281 235.648 96.1562C236.555 97.4688 237.008 99.125 237.008 101.125V111.742C237.008 113.273 237.094 114.477 237.266 115.352C237.453 116.211 237.719 116.961 238.062 117.602V118H230.68C230.336 117.266 230.078 116.359 229.906 115.281C229.734 114.188 229.648 113.078 229.648 111.953ZM230.562 102.531L230.609 106.562H226.977C226.164 106.562 225.461 106.664 224.867 106.867C224.289 107.07 223.82 107.352 223.461 107.711C223.102 108.055 222.836 108.461 222.664 108.93C222.508 109.383 222.43 109.883 222.43 110.43C222.43 110.945 222.555 111.414 222.805 111.836C223.055 112.242 223.398 112.562 223.836 112.797C224.273 113.031 224.781 113.148 225.359 113.148C226.312 113.148 227.125 112.961 227.797 112.586C228.484 112.211 229.016 111.758 229.391 111.227C229.766 110.68 229.953 110.172 229.953 109.703L231.711 112.75C231.43 113.375 231.086 114.023 230.68 114.695C230.273 115.352 229.758 115.969 229.133 116.547C228.508 117.109 227.75 117.57 226.859 117.93C225.984 118.289 224.93 118.469 223.695 118.469C222.102 118.469 220.656 118.148 219.359 117.508C218.062 116.852 217.023 115.953 216.242 114.812C215.477 113.672 215.094 112.359 215.094 110.875C215.094 109.547 215.336 108.367 215.82 107.336C216.305 106.305 217.031 105.43 218 104.711C218.984 103.992 220.219 103.453 221.703 103.094C223.188 102.719 224.922 102.531 226.906 102.531H230.562ZM252.406 112.773C253.188 112.773 253.867 112.625 254.445 112.328C255.023 112.031 255.469 111.617 255.781 111.086C256.109 110.539 256.273 109.883 256.273 109.117H263.164C263.164 110.961 262.688 112.586 261.734 113.992C260.797 115.398 259.531 116.5 257.938 117.297C256.344 118.078 254.547 118.469 252.547 118.469C250.578 118.469 248.859 118.148 247.391 117.508C245.922 116.852 244.695 115.938 243.711 114.766C242.727 113.594 241.984 112.234 241.484 110.688C241 109.125 240.758 107.438 240.758 105.625V105.016C240.758 103.219 241 101.539 241.484 99.9766C241.984 98.4141 242.727 97.0469 243.711 95.875C244.695 94.7031 245.914 93.7969 247.367 93.1562C248.836 92.5 250.555 92.1719 252.523 92.1719C254.602 92.1719 256.438 92.5703 258.031 93.3672C259.641 94.1641 260.898 95.3125 261.805 96.8125C262.711 98.2969 263.164 100.086 263.164 102.18H256.273C256.273 101.367 256.125 100.641 255.828 100C255.547 99.3438 255.109 98.8281 254.516 98.4531C253.938 98.0625 253.219 97.8672 252.359 97.8672C251.469 97.8672 250.734 98.0625 250.156 98.4531C249.594 98.8281 249.164 99.3516 248.867 100.023C248.57 100.695 248.367 101.461 248.258 102.32C248.148 103.164 248.094 104.062 248.094 105.016V105.625C248.094 106.594 248.148 107.516 248.258 108.391C248.367 109.25 248.57 110.008 248.867 110.664C249.18 111.32 249.617 111.836 250.18 112.211C250.742 112.586 251.484 112.773 252.406 112.773ZM274.156 81.9766V118H266.82V81.9766H274.156ZM290.258 92.6406L279.219 105.391L273.383 111.25L270.453 106.305L275.188 100.188L281.445 92.6406H290.258ZM282.523 118L275.375 106.352L280.625 102.25L290.914 118H282.523ZM304.25 118.469C302.234 118.469 300.43 118.148 298.836 117.508C297.242 116.867 295.891 115.984 294.781 114.859C293.688 113.719 292.852 112.406 292.273 110.922C291.695 109.438 291.406 107.852 291.406 106.164V105.273C291.406 103.383 291.672 101.641 292.203 100.047C292.734 98.4531 293.508 97.0703 294.523 95.8984C295.555 94.7109 296.82 93.7969 298.32 93.1562C299.82 92.5 301.531 92.1719 303.453 92.1719C305.25 92.1719 306.852 92.4688 308.258 93.0625C309.664 93.6406 310.852 94.4766 311.82 95.5703C312.789 96.6484 313.523 97.9531 314.023 99.4844C314.539 101 314.797 102.703 314.797 104.594V107.594H294.359V102.883H307.625V102.32C307.625 101.43 307.461 100.648 307.133 99.9766C306.82 99.3047 306.352 98.7891 305.727 98.4297C305.117 98.0547 304.344 97.8672 303.406 97.8672C302.516 97.8672 301.773 98.0547 301.18 98.4297C300.586 98.8047 300.109 99.3359 299.75 100.023C299.406 100.695 299.156 101.484 299 102.391C298.844 103.281 298.766 104.242 298.766 105.273V106.164C298.766 107.148 298.898 108.047 299.164 108.859C299.43 109.672 299.82 110.367 300.336 110.945C300.852 111.523 301.477 111.977 302.211 112.305C302.945 112.633 303.781 112.797 304.719 112.797C305.875 112.797 306.977 112.578 308.023 112.141C309.07 111.688 309.977 110.984 310.742 110.031L314.164 113.945C313.648 114.695 312.922 115.422 311.984 116.125C311.062 116.812 309.953 117.375 308.656 117.812C307.359 118.25 305.891 118.469 304.25 118.469ZM325.695 98.5469V118H318.383V92.6406H325.25L325.695 98.5469ZM333.266 92.4531L333.148 99.2734C332.836 99.2266 332.43 99.1875 331.93 99.1562C331.43 99.1094 331 99.0859 330.641 99.0859C329.703 99.0859 328.891 99.2031 328.203 99.4375C327.531 99.6562 326.969 99.9844 326.516 100.422C326.078 100.859 325.75 101.406 325.531 102.062C325.312 102.703 325.203 103.445 325.203 104.289L323.82 103.609C323.82 101.938 323.984 100.406 324.312 99.0156C324.641 97.625 325.117 96.4219 325.742 95.4062C326.367 94.375 327.133 93.5781 328.039 93.0156C328.945 92.4531 329.977 92.1719 331.133 92.1719C331.508 92.1719 331.891 92.1953 332.281 92.2422C332.672 92.2891 333 92.3594 333.266 92.4531Z" fill="white"/>
</svg>
