<svg width="80" height="80" viewBox="0 0 80 80" fill="none" xmlns="http://www.w3.org/2000/svg">
<rect width="80" height="80" rx="40" fill="#3185FC"/>
<path d="M36.6667 45L36.6667 40" stroke="#33363F" stroke-width="2" stroke-linecap="round"/>
<path d="M43.3333 45L43.3333 40" stroke="#33363F" stroke-width="2" stroke-linecap="round"/>
<path d="M25 31.6667H55H54C52.1144 31.6667 51.1716 31.6667 50.5858 32.2525C50 32.8382 50 33.7811 50 35.6667V49.3333C50 51.219 50 52.1618 49.4142 52.7476C48.8284 53.3333 47.8856 53.3333 46 53.3333H34C32.1144 53.3333 31.1716 53.3333 30.5858 52.7476C30 52.1618 30 51.219 30 49.3333V35.6667C30 33.7811 30 32.8382 29.4142 32.2525C28.8284 31.6667 27.8856 31.6667 26 31.6667H25Z" stroke="#33363F" stroke-width="2" stroke-linecap="round"/>
<path d="M36.7802 25.6177C36.9701 25.4405 37.3886 25.2839 37.9708 25.1722C38.5529 25.0605 39.2662 25 40 25C40.7338 25 41.447 25.0605 42.0292 25.1722C42.6113 25.2839 43.0298 25.4405 43.2197 25.6177" stroke="#33363F" stroke-width="2" stroke-linecap="round"/>
</svg>
