<svg width="180" height="155" viewBox="0 0 180 155" fill="none" xmlns="http://www.w3.org/2000/svg">
<path d="M140.208 122.708H28.7917" stroke="#33363F" stroke-width="2" stroke-linecap="round"/>
<path d="M74.5416 51.6667H46.7083C45.6037 51.6667 44.7083 52.5621 44.7083 53.6667V101.333C44.7083 102.438 45.6037 103.333 46.7083 103.333H74.5416C75.6462 103.333 76.5416 102.438 76.5416 101.333V53.6667C76.5416 52.5621 75.6462 51.6667 74.5416 51.6667Z" fill="#3185FC"/>
<path d="M122.292 25.8333H94.4583C93.3537 25.8333 92.4583 26.7288 92.4583 27.8333V101.333C92.4583 102.438 93.3537 103.333 94.4583 103.333H122.292C123.396 103.333 124.292 102.438 124.292 101.333V27.8333C124.292 26.7288 123.396 25.8333 122.292 25.8333Z" fill="#623CEA"/>
</svg>
