<svg width="60" height="60" viewBox="0 0 60 60" fill="none" xmlns="http://www.w3.org/2000/svg">
<path fill-rule="evenodd" clip-rule="evenodd" d="M35.1801 6.80099C35.0945 5.94506 35.0517 5.5171 34.766 5.25855C34.4803 5 34.0502 5 33.19 5H26.81C25.9498 5 25.5197 5 25.234 5.25855C24.9483 5.51709 24.9055 5.94506 24.8199 6.80099L24.3296 11.7037C24.1663 13.3373 24.0846 14.1541 23.5318 14.383C22.979 14.612 22.3437 14.0922 21.0731 13.0527L17.2587 9.93182C16.593 9.38711 16.2601 9.11475 15.8753 9.13395C15.4904 9.15314 15.1863 9.45727 14.578 10.0655L10.0667 14.5769C9.4584 15.1852 9.15428 15.4893 9.13508 15.8741C9.11589 16.259 9.38825 16.5918 9.93296 17.2576L13.0546 21.0729C14.0941 22.3435 14.6139 22.9788 14.3849 23.5316C14.156 24.0844 13.3392 24.1661 11.7057 24.3294L6.80099 24.8199C5.94506 24.9055 5.5171 24.9483 5.25855 25.234C5 25.5197 5 25.9498 5 26.81L5 33.19C5 34.0502 5 34.4803 5.25855 34.766C5.51709 35.0517 5.94506 35.0945 6.80099 35.1801L11.7047 35.6705C13.3382 35.8338 14.155 35.9155 14.384 36.4683C14.613 37.0211 14.0932 37.6564 13.0536 38.927L9.93284 42.7413C9.38813 43.4071 9.11577 43.7399 9.13497 44.1248C9.15416 44.5096 9.45829 44.8137 10.0665 45.422L14.5779 49.9334C15.1862 50.5416 15.4903 50.8457 15.8751 50.8649C16.26 50.8841 16.5928 50.6118 17.2586 50.0671L21.073 46.9462C22.3436 45.9067 22.9789 45.3869 23.5317 45.6158C24.0845 45.8448 24.1662 46.6616 24.3295 48.2951L24.8199 53.199C24.9055 54.0549 24.9483 54.4829 25.234 54.7415C25.5197 55 25.9498 55 26.81 55H33.19C34.0502 55 34.4803 55 34.766 54.7415C35.0517 54.4829 35.0945 54.0549 35.1801 53.199L35.6706 48.2942C35.8339 46.6606 35.9156 45.8439 36.4684 45.6149C37.0212 45.3859 37.6565 45.9057 38.9271 46.9452L42.7413 50.0659C43.4071 50.6106 43.7399 50.883 44.1248 50.8638C44.5096 50.8446 44.8137 50.5405 45.422 49.9322L49.9334 45.4209C50.5416 44.8126 50.8458 44.5085 50.8649 44.1236C50.8841 43.7388 50.6118 43.4059 50.0671 42.7402L46.9472 38.9269C45.9076 37.6563 45.3878 37.0211 45.6168 36.4682C45.8458 35.9154 46.6625 35.8337 48.2961 35.6704L53.199 35.1801C54.0549 35.0945 54.4829 35.0517 54.7415 34.766C55 34.4803 55 34.0502 55 33.19V26.81C55 25.9498 55 25.5197 54.7415 25.234C54.4829 24.9483 54.0549 24.9055 53.199 24.8199L48.2951 24.3295C46.6616 24.1662 45.8448 24.0845 45.6158 23.5317C45.3869 22.9789 45.9066 22.3436 46.9462 21.073L50.067 17.2587C50.6117 16.593 50.884 16.2601 50.8648 15.8752C50.8456 15.4904 50.5415 15.1863 49.9333 14.578L45.4219 10.0667C44.8136 9.4584 44.5095 9.15427 44.1247 9.13508C43.7398 9.11589 43.4069 9.38824 42.7412 9.93296L38.927 13.0536C37.6564 14.0932 37.0211 14.613 36.4683 14.384C35.9155 14.155 35.8338 13.3383 35.6705 11.7047L35.1801 6.80099Z" fill="#070707"/>
<circle cx="30" cy="30" r="7.5" fill="white"/>
</svg>
